<?xml version="1.0" encoding="UTF-8" standalone="no"?>
<!DOCTYPE svg PUBLIC "-//W3C//DTD SVG 1.1//EN"
 "http://www.w3.org/Graphics/SVG/1.1/DTD/svg11.dtd">
<!-- Generated by graphviz version 16.1.0 (20260904.0139)
 -->
<!-- Title: CFG for &#39;sum_positive&#39; function Pages: 1 -->
<svg width="491pt" height="624pt"
 viewBox="0.00 0.00 491.00 624.00" xmlns="http://www.w3.org/2000/svg" xmlns:xlink="http://www.w3.org/1999/xlink">
<g id="graph0" class="graph" transform="scale(1 1) rotate(0) translate(4 620)">
<title>CFG for &#39;sum_positive&#39; function</title>
<polygon fill="white" stroke="none" points="-4,4 -4,-620 486.5,-620 486.5,4 -4,4"/>
<text xml:space="preserve" text-anchor="middle" x="241.25" y="-7.2" font-family="Times,serif" font-size="14.00">CFG for &#39;sum_positive&#39; function</text>
<!-- Node0x1586199b0 -->
<g id="node1" class="node">
<title>Node0x1586199b0</title>
<polygon fill="none" stroke="black" points="270.38,-566.5 270.38,-615.5 379.38,-615.5 379.38,-566.5 270.38,-566.5"/>
<text xml:space="preserve" text-anchor="start" x="278.38" y="-598.2" font-family="Times,serif" font-size="14.00">entry:</text>
<polyline fill="none" stroke="black" points="270.38,-591 379.38,-591"/>
<text xml:space="preserve" text-anchor="start" x="278.38" y="-573.7" font-family="Times,serif" font-size="14.00">br label %header</text>
</g>
<!-- Node0x158619a20 -->
<g id="node2" class="node">
<title>Node0x158619a20</title>
<polygon fill="none" stroke="black" points="167.25,-406.5 167.25,-529.5 482.5,-529.5 482.5,-406.5 167.25,-406.5"/>
<text xml:space="preserve" text-anchor="start" x="175.25" y="-512.2" font-family="Times,serif" font-size="14.00">header:</text>
<polyline fill="none" stroke="black" points="167.25,-505 482.5,-505"/>
<text xml:space="preserve" text-anchor="start" x="175.25" y="-487.7" font-family="Times,serif" font-size="14.00">%i = phi i64 [ 0, %entry ], [ %i.next, %latch ]</text>
<text xml:space="preserve" text-anchor="start" x="175.25" y="-471.2" font-family="Times,serif" font-size="14.00"> %sum = phi i32 [ 0, %entry ], [ %sum.next, %latch ]</text>
<text xml:space="preserve" text-anchor="start" x="175.25" y="-454.7" font-family="Times,serif" font-size="14.00"> %more = icmp ult i64 %i, %n</text>
<text xml:space="preserve" text-anchor="start" x="175.25" y="-438.2" font-family="Times,serif" font-size="14.00"> br i1 %more, label %body, label %exit</text>
<polyline fill="none" stroke="black" points="167.25,-431 482.5,-431"/>
<text xml:space="preserve" text-anchor="middle" x="245.88" y="-413.7" font-family="Times,serif" font-size="14.00">T</text>
<polyline fill="none" stroke="black" points="324.5,-406.5 324.5,-431"/>
<text xml:space="preserve" text-anchor="middle" x="403.25" y="-413.7" font-family="Times,serif" font-size="14.00">F</text>
</g>
<!-- Node0x1586199b0&#45;&gt;Node0x158619a20 -->
<g id="edge1" class="edge">
<title>Node0x1586199b0&#45;&gt;Node0x158619a20</title>
<path fill="none" stroke="black" d="M324.88,-566.09C324.88,-558.73 324.88,-550.21 324.88,-541.34"/>
<polygon fill="black" stroke="black" points="328.38,-541.49 324.88,-531.49 321.38,-541.49 328.38,-541.49"/>
</g>
<!-- Node0x158619fb0 -->
<g id="node3" class="node">
<title>Node0x158619fb0</title>
<polygon fill="none" stroke="black" points="55.5,-246.5 55.5,-369.5 300.25,-369.5 300.25,-246.5 55.5,-246.5"/>
<text xml:space="preserve" text-anchor="start" x="63.5" y="-352.2" font-family="Times,serif" font-size="14.00">body:</text>
<polyline fill="none" stroke="black" points="55.5,-345 300.25,-345"/>
<text xml:space="preserve" text-anchor="start" x="63.5" y="-327.7" font-family="Times,serif" font-size="14.00">%p = getelementptr i32, ptr %a, i64 %i</text>
<text xml:space="preserve" text-anchor="start" x="63.5" y="-311.2" font-family="Times,serif" font-size="14.00"> %x = load i32, ptr %p, align 4</text>
<text xml:space="preserve" text-anchor="start" x="63.5" y="-294.7" font-family="Times,serif" font-size="14.00"> %positive = icmp sgt i32 %x, 0</text>
<text xml:space="preserve" text-anchor="start" x="63.5" y="-278.2" font-family="Times,serif" font-size="14.00"> br i1 %positive, label %add, label %skip</text>
<polyline fill="none" stroke="black" points="55.5,-271 300.25,-271"/>
<text xml:space="preserve" text-anchor="middle" x="116.62" y="-253.7" font-family="Times,serif" font-size="14.00">T</text>
<polyline fill="none" stroke="black" points="177.75,-246.5 177.75,-271"/>
<text xml:space="preserve" text-anchor="middle" x="239" y="-253.7" font-family="Times,serif" font-size="14.00">F</text>
</g>
<!-- Node0x158619a20&#45;&gt;Node0x158619fb0 -->
<g id="edge2" class="edge">
<title>Node0x158619a20:s0&#45;&gt;Node0x158619fb0</title>
<path fill="none" stroke="black" d="M166.25,-418.75C146.92,-418.75 144.63,-401.7 148.96,-381.04"/>
<polygon fill="black" stroke="black" points="152.32,-381.99 151.39,-371.44 145.54,-380.27 152.32,-381.99"/>
</g>
<!-- Node0x15861a070 -->
<g id="node4" class="node">
<title>Node0x15861a070</title>
<polygon fill="none" stroke="black" points="357.75,-283.5 357.75,-332.5 448,-332.5 448,-283.5 357.75,-283.5"/>
<text xml:space="preserve" text-anchor="start" x="365.75" y="-315.2" font-family="Times,serif" font-size="14.00">exit:</text>
<polyline fill="none" stroke="black" points="357.75,-308 448,-308"/>
<text xml:space="preserve" text-anchor="start" x="365.75" y="-290.7" font-family="Times,serif" font-size="14.00">ret i32 %sum</text>
</g>
<!-- Node0x158619a20&#45;&gt;Node0x15861a070 -->
<g id="edge3" class="edge">
<title>Node0x158619a20:s1&#45;&gt;Node0x15861a070</title>
<path fill="none" stroke="black" d="M403.25,-406C403.25,-385.55 403.17,-362.69 403.08,-344.29"/>
<polygon fill="black" stroke="black" points="406.58,-344.41 403.03,-334.43 399.58,-344.45 406.58,-344.41"/>
</g>
<!-- Node0x15861a020 -->
<g id="node5" class="node">
<title>Node0x15861a020</title>
<polygon fill="none" stroke="black" points="0,-144 0,-209.5 181.75,-209.5 181.75,-144 0,-144"/>
<text xml:space="preserve" text-anchor="start" x="8" y="-192.2" font-family="Times,serif" font-size="14.00">add:</text>
<polyline fill="none" stroke="black" points="0,-185 181.75,-185"/>
<text xml:space="preserve" text-anchor="start" x="8" y="-167.7" font-family="Times,serif" font-size="14.00">%added = add i32 %sum, %x</text>
<text xml:space="preserve" text-anchor="start" x="8" y="-151.2" font-family="Times,serif" font-size="14.00"> br label %latch</text>
</g>
<!-- Node0x158619fb0&#45;&gt;Node0x15861a020 -->
<g id="edge4" class="edge">
<title>Node0x158619fb0:s0&#45;&gt;Node0x15861a020</title>
<path fill="none" stroke="black" d="M116.62,-246C116.62,-237.46 114.84,-228.68 112.2,-220.38"/>
<polygon fill="black" stroke="black" points="115.58,-219.42 108.86,-211.23 109.01,-221.83 115.58,-219.42"/>
</g>
<!-- Node0x15861a5e0 -->
<g id="node6" class="node">
<title>Node0x15861a5e0</title>
<polygon fill="none" stroke="black" points="200.25,-152.25 200.25,-201.25 299.5,-201.25 299.5,-152.25 200.25,-152.25"/>
<text xml:space="preserve" text-anchor="start" x="208.25" y="-183.95" font-family="Times,serif" font-size="14.00">skip:</text>
<polyline fill="none" stroke="black" points="200.25,-176.75 299.5,-176.75"/>
<text xml:space="preserve" text-anchor="start" x="208.25" y="-159.45" font-family="Times,serif" font-size="14.00">br label %latch</text>
</g>
<!-- Node0x158619fb0&#45;&gt;Node0x15861a5e0 -->
<g id="edge5" class="edge">
<title>Node0x158619fb0:s1&#45;&gt;Node0x15861a5e0</title>
<path fill="none" stroke="black" d="M239,-246C239,-235.07 240.38,-223.29 242.15,-212.63"/>
<polygon fill="black" stroke="black" points="245.54,-213.56 243.91,-203.1 238.65,-212.29 245.54,-213.56"/>
</g>
<!-- Node0x158619bd0 -->
<g id="node7" class="node">
<title>Node0x158619bd0</title>
<polygon fill="none" stroke="black" points="81.38,-25 81.38,-107 418.38,-107 418.38,-25 81.38,-25"/>
<text xml:space="preserve" text-anchor="start" x="89.38" y="-89.7" font-family="Times,serif" font-size="14.00">latch:</text>
<polyline fill="none" stroke="black" points="81.38,-82.5 418.38,-82.5"/>
<text xml:space="preserve" text-anchor="start" x="89.38" y="-65.2" font-family="Times,serif" font-size="14.00">%sum.next = phi i32 [ %added, %add ], [ %sum, %skip ]</text>
<text xml:space="preserve" text-anchor="start" x="89.38" y="-48.7" font-family="Times,serif" font-size="14.00"> %i.next = add i64 %i, 1</text>
<text xml:space="preserve" text-anchor="start" x="89.38" y="-32.2" font-family="Times,serif" font-size="14.00"> br label %header</text>
</g>
<!-- Node0x15861a020&#45;&gt;Node0x158619bd0 -->
<g id="edge6" class="edge">
<title>Node0x15861a020&#45;&gt;Node0x158619bd0</title>
<path fill="none" stroke="black" d="M137.72,-143.71C151.53,-134.27 166.92,-123.74 181.78,-113.58"/>
<polygon fill="black" stroke="black" points="183.41,-116.7 189.69,-108.17 179.46,-110.92 183.41,-116.7"/>
</g>
<!-- Node0x15861a5e0&#45;&gt;Node0x158619bd0 -->
<g id="edge7" class="edge">
<title>Node0x15861a5e0&#45;&gt;Node0x158619bd0</title>
<path fill="none" stroke="black" d="M249.88,-151.88C249.88,-142.13 249.88,-130.44 249.88,-118.9"/>
<polygon fill="black" stroke="black" points="253.38,-119 249.88,-109 246.38,-119 253.38,-119"/>
</g>
<!-- Node0x158619bd0&#45;&gt;Node0x158619a20 -->
<g id="edge8" class="edge">
<title>Node0x158619bd0&#45;&gt;Node0x158619a20</title>
<path fill="none" stroke="black" d="M288,-107.1C296.35,-118.11 304.12,-130.6 308.88,-143.5 339.17,-225.67 338.52,-327.59 333.37,-394.82"/>
<polygon fill="black" stroke="black" points="329.9,-394.37 332.56,-404.62 336.88,-394.94 329.9,-394.37"/>
</g>
</g>
</svg>
